<svg width="19" height="22" viewBox="0 0 19 22" fill="none" xmlns="http://www.w3.org/2000/svg">
<path opacity="0.8" d="M12.6051 10.45C12.6051 11.121 12.1166 11.671 11.4977 11.671C10.8897 11.671 10.3903 11.121 10.3903 10.45C10.3903 9.779 10.8789 9.229 11.4977 9.229C12.1166 9.229 12.6051 9.779 12.6051 10.45ZM7.53486 9.229C6.916 9.229 6.42743 9.779 6.42743 10.45C6.42743 11.121 6.92686 11.671 7.53486 11.671C8.15371 11.671 8.64229 11.121 8.64229 10.45C8.65314 9.779 8.15371 9.229 7.53486 9.229ZM19 2.266V22C16.2648 19.551 17.1395 20.3617 13.9623 17.369L14.5377 19.404H2.22571C0.998857 19.404 0 18.392 0 17.138V2.266C0 1.012 0.998857 0 2.22571 0H16.7743C18.0011 0 19 1.012 19 2.266ZM15.9057 12.694C15.9057 9.152 14.3423 6.281 14.3423 6.281C12.7789 5.093 11.2914 5.126 11.2914 5.126L11.1394 5.302C12.9851 5.874 13.8429 6.699 13.8429 6.699C11.2638 5.26689 8.23429 5.26664 5.73257 6.38C5.33086 6.567 5.092 6.699 5.092 6.699C5.092 6.699 5.99314 5.83 7.94743 5.258L7.83886 5.126C7.83886 5.126 6.35143 5.093 4.788 6.281C4.788 6.281 3.22457 9.152 3.22457 12.694C3.22457 12.694 4.13657 14.289 6.536 14.366C6.536 14.366 6.93771 13.871 7.26343 13.453C5.88457 13.035 5.36343 12.155 5.36343 12.155C5.52315 12.2683 5.78652 12.4151 5.80857 12.43C7.64114 13.4698 10.2442 13.8104 12.5834 12.815C12.9634 12.672 13.3869 12.463 13.832 12.166C13.832 12.166 13.2891 13.068 11.8669 13.475C12.1926 13.893 12.5834 14.366 12.5834 14.366C14.9829 14.289 15.9057 12.694 15.9057 12.694Z" fill="white"/>
</svg>
