<svg width="15" height="22" viewBox="0 0 15 22" fill="none" xmlns="http://www.w3.org/2000/svg">
<path opacity="0.8" d="M13.6725 8.32404H13.0369C12.6856 8.32404 12.4012 8.60851 12.4012 8.95973V10.8668C12.4012 13.8386 9.83896 16.2232 6.80752 15.9277C4.16545 15.6698 2.23018 13.2947 2.23018 10.6403V8.95973C2.23018 8.60851 1.94571 8.32404 1.59449 8.32404H0.958807C0.60759 8.32404 0.32312 8.60851 0.32312 8.95973V10.5553C0.32312 14.1167 2.86468 17.2916 6.36215 17.7739V19.1307H4.13724C3.78602 19.1307 3.50155 19.4152 3.50155 19.7664V20.4021C3.50155 20.7533 3.78602 21.0378 4.13724 21.0378H10.4941C10.8453 21.0378 11.1298 20.7533 11.1298 20.4021V19.7664C11.1298 19.4152 10.8453 19.1307 10.4941 19.1307H8.26921V17.789C11.6745 17.3218 14.3082 14.3988 14.3082 10.8668V8.95973C14.3082 8.60851 14.0238 8.32404 13.6725 8.32404ZM7.31568 14.6809C9.42218 14.6809 11.1298 12.9733 11.1298 10.8668H7.7396C7.50559 10.8668 7.31568 10.7246 7.31568 10.5489V9.91326C7.31568 9.73765 7.50559 9.59542 7.7396 9.59542H11.1298V8.32404H7.7396C7.50559 8.32404 7.31568 8.18181 7.31568 8.0062V7.37051C7.31568 7.19491 7.50559 7.05267 7.7396 7.05267H11.1298V5.7813H7.7396C7.50559 5.7813 7.31568 5.63906 7.31568 5.46345V4.82777C7.31568 4.65216 7.50559 4.50992 7.7396 4.50992H11.1298C11.1298 2.40341 9.42218 0.695801 7.31568 0.695801C5.20917 0.695801 3.50155 2.40341 3.50155 4.50992V10.8668C3.50155 12.9733 5.20917 14.6809 7.31568 14.6809Z" fill="white"/>
</svg>
