<svg width="18" height="18" viewBox="0 0 18 18" fill="none" xmlns="http://www.w3.org/2000/svg">
<path d="M9 0C4.02823 0 0 4.02823 0 9C0 13.9718 4.02823 18 9 18C13.9718 18 18 13.9718 18 9C18 4.02823 13.9718 0 9 0ZM10.2266 6.88427L13.1298 5.14234C13.5508 4.89194 14.0008 5.42177 13.6887 5.79556L12.4694 7.25806L13.6887 8.72056C14.0044 9.09798 13.5472 9.62056 13.1298 9.37379L10.2266 7.63185C9.94718 7.46129 9.94718 7.05484 10.2266 6.88427ZM4.31129 5.79556C3.99919 5.42177 4.44919 4.89194 4.87016 5.14234L7.77339 6.88427C8.05645 7.05484 8.05645 7.46129 7.77339 7.63185L4.87016 9.37379C4.45282 9.62056 3.99919 9.09798 4.31129 8.72056L5.53064 7.25806L4.31129 5.79556ZM9 15.3871C6.80081 15.3871 4.11895 13.9972 3.78145 12.0012C3.70887 11.5694 4.12258 11.2173 4.53266 11.3516C5.62863 11.7036 7.25806 11.9032 9 11.9032C10.7419 11.9032 12.3714 11.7036 13.4673 11.3516C13.8847 11.2173 14.2875 11.5766 14.2185 12.0012C13.881 13.9972 11.1992 15.3871 9 15.3871Z" fill="white" fill-opacity="0.8"/>
</svg>
