<svg width="21" height="21" viewBox="0 0 21 21" fill="none" xmlns="http://www.w3.org/2000/svg">
<path opacity="0.8" d="M0.695801 10.3627C0.695801 4.9196 5.10588 0.509521 10.5489 0.509521C15.992 0.509521 20.4021 4.9196 20.4021 10.3627C20.4021 15.8057 15.992 20.2158 10.5489 20.2158C5.10588 20.2158 0.695801 15.8057 0.695801 10.3627ZM9.87353 5.83737L4.49006 11.2208C4.11659 11.5943 4.11659 12.1982 4.49006 12.5677L5.16547 13.2431C5.53894 13.6166 6.14284 13.6166 6.51234 13.2431L10.5489 9.20651L14.5856 13.2431C14.959 13.6166 15.5629 13.6166 15.9324 13.2431L16.6078 12.5677C16.9813 12.1942 16.9813 11.5903 16.6078 11.2208L11.2244 5.83737C10.8509 5.46391 10.247 5.46391 9.87353 5.83737Z" fill="white"/>
</svg>
